<?xml version="1.0" encoding="UTF-8" standalone="no"?>
<svg width="81px" height="82px" viewBox="0 0 81 82" version="1.1" xmlns="http://www.w3.org/2000/svg" xmlns:xlink="http://www.w3.org/1999/xlink" xmlns:sketch="http://www.bohemiancoding.com/sketch/ns">
    <!-- Generator: Sketch 3.5.1 (25234) - http://www.bohemiancoding.com/sketch -->
    <title>Group 2</title>
    <desc>Created with Sketch.</desc>
    <defs>
        <rect id="path-1" x="0" y="0" width="60" height="60" rx="3"></rect>
        <filter x="-50%" y="-50%" width="200%" height="200%" filterUnits="objectBoundingBox" id="filter-3">
            <feGaussianBlur stdDeviation="2" in="SourceGraphic" result="blur"></feGaussianBlur>
        </filter>
        <filter x="-50%" y="-50%" width="200%" height="200%" filterUnits="objectBoundingBox" id="filter-4">
            <feGaussianBlur stdDeviation="2" in="SourceGraphic" result="blur"></feGaussianBlur>
        </filter>
    </defs>
    <g id="Page-1" stroke="none" stroke-width="1" fill="none" fill-rule="evenodd" sketch:type="MSPage">
        <g id="Colors" sketch:type="MSArtboardGroup" transform="translate(-21.000000, -30.000000)">
            <g id="Group-2" sketch:type="MSLayerGroup" transform="translate(20.000000, 30.000000)">
                <g id="icn-typeform-logo" transform="translate(10.000000, 0.000000)">
                    <g id="icn-typeform-blocks">
                        <mask id="mask-2" sketch:name="Mask" fill="white">
                            <use xlink:href="#path-1"></use>
                        </mask>
                        <use id="Mask" fill="#D8D8D8" sketch:type="MSShapeGroup" xlink:href="#path-1"></use>
                        <rect id="blue" fill="#8BCBCA" sketch:type="MSShapeGroup" mask="url(#mask-2)" x="0" y="0" width="20" height="20"></rect>
                        <rect id="yellow" fill="#E4BA3F" sketch:type="MSShapeGroup" mask="url(#mask-2)" x="20" y="0" width="20" height="20"></rect>
                        <rect id="orange" fill="#CB732B" sketch:type="MSShapeGroup" mask="url(#mask-2)" x="40" y="0" width="20" height="20"></rect>
                        <rect id="green" fill="#89BC62" sketch:type="MSShapeGroup" mask="url(#mask-2)" x="0" y="20" width="20" height="20"></rect>
                        <rect id="purple" fill="#C384C5" sketch:type="MSShapeGroup" mask="url(#mask-2)" x="20" y="20" width="20" height="20"></rect>
                        <rect id="red" fill="#C75875" sketch:type="MSShapeGroup" mask="url(#mask-2)" x="40" y="20" width="20" height="20"></rect>
                        <rect id="gray1" fill="#D8D8D8" sketch:type="MSShapeGroup" mask="url(#mask-2)" x="0" y="40" width="20" height="20"></rect>
                        <rect id="gray2" fill="#BBBBBB" sketch:type="MSShapeGroup" mask="url(#mask-2)" x="20" y="40" width="20" height="20"></rect>
                        <rect id="gray3" fill="#949393" sketch:type="MSShapeGroup" mask="url(#mask-2)" x="40" y="40" width="20" height="20"></rect>
                    </g>
                    <g id="icn-typeform-shadow" transform="translate(13.846154, 10.769231)" fill="#000000" sketch:type="MSShapeGroup">
                        <path d="M23.0769231,0 L27.6923077,0 L27.6923077,36.9230769 L23.0769231,36.9230769 L23.0769231,0 Z" id="Fill-2-Copy" filter="url(#filter-3)"></path>
                        <path d="M11.4193558,14.2023491 L11.4193558,27.221611 C11.4193558,28.9680188 11.745699,30.2170224 12.3991443,30.968243 C13.0514512,31.7198423 14.0946111,32.0069957 15.5210344,32.0952632 C15.9505932,32.1217813 17.6077336,32.1589067 18.4615385,32.0452576 L18.4615385,36.5832661 C17.5128664,36.7048707 16.5167607,36.9230769 14.1742995,36.9230769 C11.4394676,36.9230769 9.34783537,36.1695834 7.89940281,34.6618387 C6.45059079,33.1552305 5.72656424,30.8939922 5.72656424,27.8785028 L5.72656424,14.2023491 L0,14.2023491 L0,8.53428967 L5.72656424,8.53428967 L5.72656424,0 L11.4193558,0 L11.4193558,8.53428967 L18.4615385,8.53428967 L18.4615385,14.2023491 L11.4193558,14.2023491 Z" id="Fill-3-Copy" filter="url(#filter-4)"></path>
                    </g>
                    <g transform="translate(13.846154, 10.769231)" fill="#FFFFFF" sketch:type="MSShapeGroup">
                        <path d="M23.0769231,0 L27.6923077,0 L27.6923077,36.9230769 L23.0769231,36.9230769 L23.0769231,0 Z" id="Fill-2-Copy"></path>
                        <path d="M10.7692308,13.8461538 L10.7692308,27.6923077 C10.7692308,28.1387136 11.5067493,31.0459614 11.878756,31.3191106 C13.0296291,32.1641491 14.0946111,32.0069957 15.3846154,32.3076923 C15.9505932,32.1217813 17.6077336,32.1589067 18.4615385,32.3076923 L18.4615385,36.9230769 C17.5128664,36.7048707 16.5167607,36.9230769 13.8461538,36.9230769 C11.4394676,36.9230769 10.3008564,36.5328275 8.76239483,35.5160757 C7.22393329,34.4993239 6.15384615,31.3191106 6.15384615,27.6923077 L6.15384615,13.8461538 L0,13.8461538 L0,9.23076923 L6.15384615,9.23076923 L6.15384615,0 L10.7692308,0 L10.7692308,9.23076923 L18.4615385,9.23076923 L18.4615385,13.8461538 L10.7692308,13.8461538 Z" id="Fill-3-Copy"></path>
                    </g>
                </g>
                <text id="Innovation" opacity="0.448285914" sketch:type="MSTextLayer" font-family="Avenir Next" font-size="14" font-weight="normal" letter-spacing="1.75" fill="#37404A">
                    <tspan x="0" y="81">Innovation</tspan>
                </text>
            </g>
        </g>
    </g>
</svg>