<?xml version="1.0" encoding="UTF-8" standalone="no"?>
<svg width="42px" height="42px" viewBox="0 0 42 42" version="1.1" xmlns="http://www.w3.org/2000/svg" xmlns:xlink="http://www.w3.org/1999/xlink" xmlns:sketch="http://www.bohemiancoding.com/sketch/ns">
    <!-- Generator: Sketch 3.5 (25232) - http://www.bohemiancoding.com/sketch -->
    <title>icn-typeform-logo</title>
    <desc>Created with Sketch.</desc>
    <defs>
        <rect id="path-1" x="0" y="0" width="42" height="42" rx="3"></rect>
    </defs>
    <g id="Page-1" stroke="none" stroke-width="1" fill="none" fill-rule="evenodd" sketch:type="MSPage">
        <g id="Colors-Copy" sketch:type="MSArtboardGroup" transform="translate(-30.000000, -30.000000)">
            <g id="icn-typeform-logo" sketch:type="MSLayerGroup" transform="translate(30.000000, 30.000000)">
                <g id="icn-typeform-blocks">
                    <mask id="mask-2" sketch:name="Mask" fill="white">
                        <use xlink:href="#path-1"></use>
                    </mask>
                    <use id="Mask" fill="#D8D8D8" sketch:type="MSShapeGroup" xlink:href="#path-1"></use>
                    <rect id="blue" fill="#8BCBCA" sketch:type="MSShapeGroup" mask="url(#mask-2)" x="0" y="0" width="14" height="14"></rect>
                    <rect id="yellow" fill="#E4BA3F" sketch:type="MSShapeGroup" mask="url(#mask-2)" x="14" y="0" width="14" height="14"></rect>
                    <rect id="orange" fill="#CB732B" sketch:type="MSShapeGroup" mask="url(#mask-2)" x="28" y="0" width="14" height="14"></rect>
                    <rect id="green" fill="#89BC62" sketch:type="MSShapeGroup" mask="url(#mask-2)" x="0" y="14" width="14" height="14"></rect>
                    <rect id="purple" fill="#C384C5" sketch:type="MSShapeGroup" mask="url(#mask-2)" x="14" y="14" width="14" height="14"></rect>
                    <rect id="red" fill="#C75875" sketch:type="MSShapeGroup" mask="url(#mask-2)" x="28" y="14" width="14" height="14"></rect>
                    <rect id="gray1" fill="#D8D8D8" sketch:type="MSShapeGroup" mask="url(#mask-2)" x="0" y="28" width="14" height="14"></rect>
                    <rect id="gray2" fill="#BBBBBB" sketch:type="MSShapeGroup" mask="url(#mask-2)" x="14" y="28" width="14" height="14"></rect>
                    <rect id="gray3" fill="#949393" sketch:type="MSShapeGroup" mask="url(#mask-2)" x="28" y="28" width="14" height="14"></rect>
                </g>
                <g transform="translate(9.692308, 7.538462)" fill="#FFFFFF" sketch:type="MSShapeGroup">
                    <path d="M16.1538462,0 L19.3846154,0 L19.3846154,25.8461538 L16.1538462,25.8461538 L16.1538462,0 Z" id="Fill-2-Copy"></path>
                    <path d="M7.53846154,9.69230769 L7.53846154,19.3846154 C7.53846154,19.6970995 8.0547245,21.732173 8.31512921,21.9233774 C9.12074037,22.5149044 9.86622775,22.404897 10.7692308,22.6153846 C11.1654152,22.4852469 12.3254135,22.5112347 12.9230769,22.6153846 L12.9230769,25.8461538 C12.2590065,25.6934095 11.5617325,25.8461538 9.69230769,25.8461538 C8.00762732,25.8461538 7.21059946,25.5729793 6.13367638,24.861253 C5.05675331,24.1495267 4.30769231,21.9233774 4.30769231,19.3846154 L4.30769231,9.69230769 L0,9.69230769 L0,6.46153846 L4.30769231,6.46153846 L4.30769231,0 L7.53846154,0 L7.53846154,6.46153846 L12.9230769,6.46153846 L12.9230769,9.69230769 L7.53846154,9.69230769 Z" id="Fill-3-Copy"></path>
                </g>
            </g>
        </g>
    </g>
</svg>